<svg width="126" height="132" viewBox="0 0 126 132" fill="none" xmlns="http://www.w3.org/2000/svg">
<g filter="url(#filter0_d_1095_1024)">
<path d="M96.6221 107.398H94.0332L94.5203 106.457H95.932L96.0593 105.986H94.4118L95.0429 103.633H97.6318L97.3798 104.574H95.7323L95.605 105.044H97.2525L96.6221 107.398ZM98.0505 106.457L97.7986 107.398H96.8573L97.1092 106.457H98.0505ZM98.0338 107.398L99.0435 103.633H101.632L100.623 107.398H98.0338ZM99.7336 104.574L99.227 106.457H99.9332L100.439 104.574H99.7336Z" fill="url(#paint0_linear_1095_1024)"/>
<path d="M28.0315 104.376H24L29.1301 85.2808L32.3552 88.2958L28.0315 104.376ZM40.1741 104.376H31.1034L35.4271 88.2958H48.5296L47.4509 92.3158H38.3801L36.2132 100.356H41.2525L41.7968 98.3458H39.781L41.8674 94.3258H46.9066L44.2055 104.376L39.3679 107.391L40.1741 104.376ZM56.3485 104.376L59.5937 92.3158H54.5544L51.3092 104.376H47.2775L51.6011 88.2958H64.7034L60.3799 104.376H56.3485ZM67.4832 104.376H63.4518L68.5813 85.2808L71.8067 88.2958L67.4832 104.376ZM80.3519 92.3158L77.1064 104.376L72.2683 107.391L76.3198 92.3158H73.2961L75.3825 88.2958H84.4536L82.3672 92.3158H80.3519ZM87.0217 88.2958H96.0922L95.0135 92.3158H89.9744L89.4304 94.3258H94.4695L92.3831 98.3458H88.3517L87.8076 100.356H92.8467L91.768 104.376H82.6976L87.0217 88.2958Z" fill="url(#paint1_linear_1095_1024)"/>
<path fill-rule="evenodd" clip-rule="evenodd" d="M54.4368 33.6675L60.4313 24L58.4771 37.4668L54.4368 33.6675ZM54.4368 34.6834L59.8113 51.3099L61.822 41.7178L54.4368 34.6834ZM58.9086 60.378L62.5542 42.8864L67.609 50.1651L58.9086 60.378ZM73.5276 44.5208L71.3666 53.6994L74.486 56.483L73.5276 44.5208ZM76.7402 62.0118L78.3563 48.5073L79.9723 53.9617L76.7402 62.0118ZM43.0862 73.617V52.3259L57.3301 84.3L43.0862 73.617ZM52.3883 70.1748L58.4767 62.9148V84.2998L52.3883 70.1748ZM67.6652 52.3259L59.8104 61.7678V82.5885L67.6652 52.3259ZM60.4312 84.299L65.3732 64.2869L68.6994 73.6159L60.4312 84.299ZM75.7082 65.0971L61.8215 83.849L75.7082 75.216V65.0971ZM76.7402 63.7231L79.9723 56.4818L76.7402 74.2935V63.7231ZM81.8144 61.1858L80.6494 68.3141L82.848 65.3988L81.8144 61.1858ZM70.1875 69.1256V55.265L75.7305 60.7479L70.1875 69.1256ZM68.6992 53.4573L66.087 62.9178L69.1314 71.6261L68.6992 53.4573ZM39.9668 56.8781L37.0166 66.1129L39.9668 69.1034V56.8781ZM48.5726 61.6356L43.4613 50.8774L48.5726 45.1972V61.6356ZM54.1181 46.4855L50.6347 64.8123L56.1777 53.9242L54.1181 46.4855ZM51.2506 68.3533L56.6845 57.8809L56.9476 61.5196L51.2506 68.3533ZM71.3681 48.5083L73.1721 43.6934L62.6865 38.8786L71.3681 48.5083Z" fill="url(#paint2_linear_1095_1024)"/>
</g>
<defs>
<filter id="filter0_d_1095_1024" x="0" y="0" width="125.632" height="131.398" filterUnits="userSpaceOnUse" color-interpolation-filters="sRGB">
<feFlood flood-opacity="0" result="BackgroundImageFix"/>
<feColorMatrix in="SourceAlpha" type="matrix" values="0 0 0 0 0 0 0 0 0 0 0 0 0 0 0 0 0 0 127 0" result="hardAlpha"/>
<feOffset/>
<feGaussianBlur stdDeviation="12"/>
<feComposite in2="hardAlpha" operator="out"/>
<feColorMatrix type="matrix" values="0 0 0 0 0.845238 0 0 0 0 0 0 0 0 0 1 0 0 0 0.7 0"/>
<feBlend mode="normal" in2="BackgroundImageFix" result="effect1_dropShadow_1095_1024"/>
<feBlend mode="normal" in="SourceGraphic" in2="effect1_dropShadow_1095_1024" result="shape"/>
</filter>
<linearGradient id="paint0_linear_1095_1024" x1="97.6003" y1="102.708" x2="97.6003" y2="108.068" gradientUnits="userSpaceOnUse">
<stop stop-color="#EB871A"/>
<stop offset="0.520833" stop-color="#E6501B"/>
<stop offset="1" stop-color="#FF0000"/>
</linearGradient>
<linearGradient id="paint1_linear_1095_1024" x1="60.3799" y1="85.2808" x2="60.3799" y2="104.376" gradientUnits="userSpaceOnUse">
<stop stop-color="#EB871A"/>
<stop offset="0.520833" stop-color="#E6501B"/>
<stop offset="1" stop-color="#FF0000"/>
</linearGradient>
<linearGradient id="paint2_linear_1095_1024" x1="58.4767" y1="24" x2="58.4767" y2="84.2998" gradientUnits="userSpaceOnUse">
<stop stop-color="#EB871A"/>
<stop offset="0.520833" stop-color="#E6501B"/>
<stop offset="1" stop-color="#FF0000"/>
</linearGradient>
</defs>
</svg>
